<?xml version="1.0" standalone="no"?>
<!DOCTYPE svg PUBLIC "-//W3C//DTD SVG 20010904//EN"
 "http://www.w3.org/TR/2001/REC-SVG-20010904/DTD/svg10.dtd">
<svg version="1.0" xmlns="http://www.w3.org/2000/svg"
 width="612.000000pt" height="612.000000pt" viewBox="0 0 612.000000 612.000000"
 preserveAspectRatio="xMidYMid meet">
<metadata>
Created by potrace 1.14, written by Peter Selinger 2001-2017
</metadata>
<g transform="translate(0.000000,612.000000) scale(0.100000,-0.100000)"
fill="#000000" stroke="none">
<path d="M2625 4921 c-67 -31 -105 -86 -105 -152 0 -16 -3 -29 -7 -30 -5 0
-17 -2 -28 -4 -11 -1 -42 -6 -69 -9 -77 -10 -129 -45 -156 -108 -52 -122 14
-234 263 -444 l68 -57 -25 -21 c-81 -68 -88 -176 -15 -252 l30 -31 -48 -30
c-152 -95 -394 -309 -533 -471 -305 -353 -486 -759 -531 -1190 -11 -111 -8
-382 5 -413 4 -10 -18 -47 -65 -110 -40 -51 -78 -110 -86 -129 -33 -77 -8
-195 53 -252 62 -58 84 -62 394 -69 l285 -6 217 -46 c334 -71 442 -82 793 -81
385 0 534 18 825 100 92 26 107 27 425 33 294 6 334 9 365 25 75 39 114 92
129 173 14 74 -6 127 -86 235 l-71 94 6 175 c10 357 -53 650 -213 974 -119
244 -242 412 -450 620 -124 124 -305 274 -408 338 l-48 30 30 31 c73 76 66
184 -16 251 l-25 21 83 71 c116 98 212 199 239 253 49 94 25 209 -54 255 -33
20 -134 43 -188 45 -5 0 -8 14 -8 30 0 67 -52 136 -119 159 -54 18 -147 13
-261 -14 -58 -14 -130 -25 -160 -25 -30 0 -102 11 -160 25 -127 30 -219 32
-275 6z m260 -96 c141 -32 220 -32 354 1 234 57 303 11 256 -171 -28 -108
-158 -354 -253 -482 -22 -30 -29 -33 -78 -33 l-54 0 0 108 c0 115 -12 152 -50
152 -38 0 -50 -37 -50 -152 l0 -108 -57 1 -58 0 -62 97 c-175 274 -256 495
-209 567 34 52 99 57 261 20z m-345 -202 c0 -35 97 -240 168 -356 40 -65 72
-121 72 -123 0 -2 -18 -4 -41 -4 -36 0 -49 8 -117 67 -152 134 -267 256 -279
296 -14 48 -1 100 30 115 37 18 50 20 110 21 48 1 57 -2 57 -16z m1188 6 c19
-6 36 -23 47 -45 35 -74 -10 -140 -223 -328 -121 -107 -134 -116 -172 -116
-22 0 -40 2 -40 5 0 3 21 37 47 77 63 99 156 284 179 358 l19 60 56 0 c31 0
70 -5 87 -11z m-253 -593 c61 -26 72 -80 26 -127 l-29 -29 -401 0 c-230 0
-410 4 -425 10 -67 25 -71 110 -6 142 32 16 73 18 418 18 307 0 389 -3 417
-14z m-225 -358 c44 -90 60 -114 78 -116 27 -4 52 14 52 36 0 9 -16 51 -37 94
-20 43 -34 81 -31 83 11 12 152 -25 197 -51 25 -15 82 -54 126 -87 327 -246
563 -522 725 -849 158 -319 230 -672 203 -1000 l-10 -132 72 -96 c94 -125 98
-133 92 -193 -4 -42 -10 -56 -41 -84 l-36 -33 -207 0 -208 0 64 38 c69 40 171
130 171 150 0 14 -36 52 -48 52 -5 0 -41 -24 -80 -54 -309 -235 -796 -352
-1382 -332 -235 7 -380 25 -655 81 -273 56 -358 65 -613 65 l-202 0 -37 33
c-31 29 -37 41 -40 88 -5 56 9 85 80 173 l24 30 33 -63 c36 -67 103 -141 128
-141 19 0 52 29 52 46 0 7 -13 28 -29 46 -42 48 -97 154 -116 223 -52 194 -19
566 76 850 144 431 437 810 879 1136 61 45 153 87 214 98 33 6 62 9 64 6 3 -2
-11 -41 -32 -84 -20 -44 -36 -87 -36 -94 0 -22 26 -39 52 -35 18 2 34 26 78
116 l54 112 136 0 136 0 54 -112z"/>
<path d="M3007 3168 c-11 -9 -17 -32 -19 -77 l-3 -64 -61 -13 c-170 -34 -269
-144 -268 -299 1 -174 78 -238 412 -345 217 -69 271 -110 272 -203 0 -125
-120 -197 -309 -184 -130 9 -220 63 -246 147 -13 44 -24 50 -91 50 -77 0 -84
-13 -58 -98 33 -105 150 -195 293 -223 l61 -12 0 -61 c0 -35 5 -67 12 -74 7
-7 35 -12 64 -12 60 0 64 5 64 89 l0 58 65 11 c133 25 226 86 272 181 37 75
40 193 6 257 -48 90 -121 131 -378 212 -88 28 -181 64 -206 80 -77 49 -98 126
-58 208 16 34 32 49 76 70 47 23 68 27 142 27 134 0 217 -45 248 -134 20 -56
32 -62 109 -57 l49 3 -1 45 c0 57 -25 109 -78 161 -46 47 -146 98 -206 106
l-40 6 0 63 c0 44 -5 67 -16 78 -19 19 -83 21 -107 4z"/>
</g>
</svg>
